<?xml version="1.0" encoding="UTF-8"?>
<svg width="205px" height="204px" viewBox="0 0 205 204" version="1.1" xmlns="http://www.w3.org/2000/svg" xmlns:xlink="http://www.w3.org/1999/xlink">
    <!-- Generator: Sketch 52.3 (67297) - http://www.bohemiancoding.com/sketch -->
    <title>Slice</title>
    <desc>Created with Sketch.</desc>
    <g id="Page-1" stroke="none" stroke-width="1" fill="none" fill-rule="evenodd">
        <g id="1f4af" transform="translate(15.000000, 7.000000)" fill="#BB1A34" fill-rule="nonzero">
            <path d="M8.73894837,118.172716 C5.61971468,118.172716 3.92107203,116.877681 3.0414178,115.790054 C2.17693002,114.722662 1.28210933,112.830697 1.90393388,109.896633 L15.6952945,45.620405 L7.03019474,46.1111018 L6.96447345,46.1111018 C4.35078818,46.1111018 2.45498164,45.2612351 1.26694288,43.7891446 C0.154736383,42.4131699 -0.24464686,40.647673 0.149680899,38.8315888 C0.908003512,35.2803601 4.61367335,32.3260615 8.57717288,32.1085361 L28.8395531,30.9602043 C29.2338809,30.9349107 29.5978757,30.9197345 29.9365932,30.9197345 C30.6797493,30.9197345 32.6463326,30.9197345 33.8950372,32.467706 C35.1690192,34.0460299 34.739303,36.0543458 34.5977495,36.7119808 L18.8044172,110.351919 C17.8590417,114.823837 14.1584273,117.884368 9.37088388,118.152481 L8.73894837,118.172716 Z M61.7374625,108.172716 C58.6182289,108.172716 56.9195862,106.877681 56.039932,105.790054 C55.1754442,104.722662 54.2806235,102.830697 54.9024481,99.8966331 L68.6938086,35.620405 L60.0287089,36.1111018 L59.9629876,36.1111018 C57.3493024,36.1111018 55.4534958,35.2612351 54.2654571,33.7891446 C53.1532506,32.4131699 52.7538673,30.647673 53.1481951,28.8315888 C53.9065177,25.2803601 57.6121875,22.3260615 61.575687,22.1085361 L81.8380673,20.9602043 C82.232395,20.9349107 82.5963899,20.9197345 82.9351073,20.9197345 C83.6782635,20.9197345 85.6448468,20.9197345 86.8935514,22.467706 C88.1675334,24.0460299 87.7378172,26.0543458 87.5962637,26.7119808 L71.8029314,100.351919 C70.8575558,104.823837 67.1569415,107.884368 62.3693981,108.152481 L61.7374625,108.172716 Z M109.737463,98.172716 C106.618229,98.172716 104.919586,96.877681 104.039932,95.790054 C103.175444,94.7226619 102.280624,92.8306967 102.902448,89.8966331 L116.693809,25.620405 L108.028709,26.1111018 L107.962988,26.1111018 C105.349302,26.1111018 103.453496,25.2612351 102.265457,23.7891446 C101.153251,22.4131699 100.753867,20.647673 101.148195,18.8315888 C101.906518,15.2803601 105.612188,12.3260615 109.575687,12.1085361 L129.838067,10.9602043 C130.232395,10.9349107 130.59639,10.9197345 130.935107,10.9197345 C131.678263,10.9197345 133.644847,10.9197345 134.893551,12.467706 C136.167533,14.0460299 135.737817,16.0543458 135.596264,16.7119808 L119.802931,90.3519189 C118.857556,94.8238365 115.156941,97.8843684 110.369398,98.1524811 L109.737463,98.172716 Z M157.737463,88.172716 C154.618229,88.172716 152.919586,86.877681 152.039932,85.790054 C151.175444,84.7226619 150.280624,82.8306967 150.902448,79.8966331 L164.693809,15.620405 L156.028709,16.1111018 L155.962988,16.1111018 C153.349302,16.1111018 151.453496,15.2612351 150.265457,13.7891446 C149.153251,12.4131699 148.753867,10.647673 149.148195,8.83158881 C149.906518,5.28036009 153.612188,2.32606155 157.575687,2.10853614 L177.838067,0.960204345 C178.232395,0.934910693 178.59639,0.919734502 178.935107,0.919734502 C179.678263,0.919734502 181.644847,0.919734502 182.893551,2.467706 C184.167533,4.04602987 183.737817,6.05434583 183.596264,6.71198078 L167.802931,80.3519189 C166.857556,84.8238365 163.156941,87.8843684 158.369398,88.1524811 L157.737463,88.172716 Z M55.6133968,189 C51.5184547,189 47.6661759,186.49087 46.1444751,182.428709 C44.1829473,177.197982 46.832021,171.365266 52.0593915,169.402479 C53.7630897,168.765078 94.5204024,153.679945 155.878813,148.560509 C161.444901,148.074871 166.328498,152.238206 166.793603,157.80281 C167.258707,163.372472 163.118266,168.259205 157.557233,168.724609 C98.9641729,173.611342 59.5516189,188.205779 59.1572912,188.352483 C57.9945298,188.787533 56.7913246,189 55.6133968,189 Z M10.1190955,158.642559 C6.05448632,158.642559 2.21737389,156.173899 0.675451244,152.152208 C-1.32652046,146.936657 1.27199837,141.083706 6.48420246,139.085507 C9.22427484,138.028233 74.8141254,113.154455 171.35365,108.070431 C176.980403,107.721379 181.692115,112.06177 181.985333,117.641549 C182.283606,123.221329 177.996556,127.986653 172.420357,128.280059 C79.2831733,133.187028 14.3808686,157.726929 13.7337666,157.974807 C12.5457279,158.425034 11.3223007,158.642559 10.1190955,158.642559 Z" id="Shape"></path>
        </g>
    </g>
</svg>